<mxfile host="app.diagrams.net" agent="Mozilla/5.0 (Windows NT 10.0; Win64; x64) AppleWebKit/537.36 (KHTML, like Gecko) Chrome/140.0.0.0 Safari/537.36" border="50" scale="3" compressed="false" locked="false" version="28.1.2">
  <diagram name="Blank" id="YmL12bMKpDGza6XwsDPr">
    <mxGraphModel dx="1426" dy="743" grid="0" gridSize="10" guides="1" tooltips="1" connect="1" arrows="1" fold="1" page="0" pageScale="1" pageWidth="827" pageHeight="1169" background="none" math="1" shadow="0">
      <root>
        <mxCell id="X5NqExCQtvZxIxQ7pmgY-0" />
        <mxCell id="1" parent="X5NqExCQtvZxIxQ7pmgY-0" />
        <mxCell id="OlqHOeAXy3FRhEp2WzW1-1" value="&lt;div&gt;&lt;br&gt;&lt;/div&gt;&lt;div&gt;&lt;br&gt;&lt;/div&gt;&lt;div&gt;&lt;br&gt;&lt;/div&gt;&lt;div&gt;&lt;br&gt;&lt;/div&gt;&lt;div&gt;&lt;br&gt;&lt;/div&gt;&lt;div&gt;&lt;br&gt;&lt;/div&gt;&lt;div&gt;&lt;br&gt;&lt;/div&gt;&lt;div&gt;&lt;br&gt;&lt;/div&gt;&lt;div&gt;&lt;br&gt;&lt;/div&gt;&lt;div&gt;&lt;br&gt;&lt;/div&gt;&lt;div&gt;&lt;br&gt;&lt;br&gt;&lt;br&gt;&lt;br&gt;&lt;br&gt;&lt;br&gt;&lt;br&gt;&lt;br&gt;&lt;br&gt;&lt;br&gt;&lt;br&gt;&lt;br&gt;&lt;br&gt;&lt;br&gt;&lt;br&gt;&lt;br&gt;&lt;br&gt;infrastructure&lt;/div&gt;" style="ellipse;whiteSpace=wrap;html=1;aspect=fixed;fillColor=#d5e8d4;strokeColor=#82b366;" vertex="1" parent="1">
          <mxGeometry x="246" y="55" width="480" height="480" as="geometry" />
        </mxCell>
        <mxCell id="OlqHOeAXy3FRhEp2WzW1-3" value="&lt;br&gt;&lt;br&gt;&lt;br&gt;&lt;br&gt;&lt;br&gt;&lt;br&gt;&lt;br&gt;&lt;br&gt;&lt;br&gt;&lt;br&gt;&lt;br&gt;&lt;br&gt;application" style="ellipse;whiteSpace=wrap;html=1;aspect=fixed;fillColor=#fff2cc;strokeColor=#d6b656;" vertex="1" parent="1">
          <mxGeometry x="331" y="140" width="310" height="310" as="geometry" />
        </mxCell>
        <mxCell id="OlqHOeAXy3FRhEp2WzW1-2" value="Domain" style="ellipse;whiteSpace=wrap;html=1;aspect=fixed;fillColor=#f8cecc;strokeColor=#b85450;" vertex="1" parent="1">
          <mxGeometry x="444" y="253" width="84" height="84" as="geometry" />
        </mxCell>
        <mxCell id="OlqHOeAXy3FRhEp2WzW1-4" value="in / usecase" style="rounded=0;whiteSpace=wrap;html=1;" vertex="1" parent="1">
          <mxGeometry x="594" y="277" width="91" height="36" as="geometry" />
        </mxCell>
        <mxCell id="OlqHOeAXy3FRhEp2WzW1-5" value="out / repository" style="rounded=0;whiteSpace=wrap;html=1;" vertex="1" parent="1">
          <mxGeometry x="386" y="137" width="100" height="43" as="geometry" />
        </mxCell>
        <mxCell id="OlqHOeAXy3FRhEp2WzW1-6" value="out / port" style="rounded=0;whiteSpace=wrap;html=1;" vertex="1" parent="1">
          <mxGeometry x="294" y="328" width="85" height="43" as="geometry" />
        </mxCell>
        <mxCell id="OlqHOeAXy3FRhEp2WzW1-7" value="" style="endArrow=none;html=1;rounded=0;fillColor=#d5e8d4;strokeColor=#749F5C;" edge="1" parent="1" source="OlqHOeAXy3FRhEp2WzW1-1">
          <mxGeometry width="50" height="50" relative="1" as="geometry">
            <mxPoint x="329" y="478.03" as="sourcePoint" />
            <mxPoint x="400" y="429" as="targetPoint" />
          </mxGeometry>
        </mxCell>
        <mxCell id="OlqHOeAXy3FRhEp2WzW1-8" value="" style="endArrow=none;html=1;rounded=0;entryX=0.006;entryY=0.465;entryDx=0;entryDy=0;entryPerimeter=0;fillColor=#d5e8d4;strokeColor=#749F5C;" edge="1" parent="1" source="OlqHOeAXy3FRhEp2WzW1-1" target="OlqHOeAXy3FRhEp2WzW1-3">
          <mxGeometry width="50" height="50" relative="1" as="geometry">
            <mxPoint x="254" y="234" as="sourcePoint" />
            <mxPoint x="304" y="184" as="targetPoint" />
          </mxGeometry>
        </mxCell>
        <mxCell id="OlqHOeAXy3FRhEp2WzW1-9" value="" style="endArrow=none;html=1;rounded=0;" edge="1" parent="1" target="OlqHOeAXy3FRhEp2WzW1-1">
          <mxGeometry width="50" height="50" relative="1" as="geometry">
            <mxPoint x="511" y="142" as="sourcePoint" />
            <mxPoint x="561" y="92" as="targetPoint" />
          </mxGeometry>
        </mxCell>
        <mxCell id="OlqHOeAXy3FRhEp2WzW1-10" value="data" style="text;html=1;align=center;verticalAlign=middle;whiteSpace=wrap;rounded=0;" vertex="1" parent="1">
          <mxGeometry x="331" y="135" width="60" height="30" as="geometry" />
        </mxCell>
        <mxCell id="OlqHOeAXy3FRhEp2WzW1-11" value="external" style="text;html=1;align=center;verticalAlign=middle;whiteSpace=wrap;rounded=0;" vertex="1" parent="1">
          <mxGeometry x="286" y="380" width="60" height="30" as="geometry" />
        </mxCell>
        <mxCell id="OlqHOeAXy3FRhEp2WzW1-14" value="presentation" style="rounded=1;whiteSpace=wrap;html=1;fillColor=#dae8fc;strokeColor=#6c8ebf;" vertex="1" parent="1">
          <mxGeometry x="744" y="270" width="120" height="60" as="geometry" />
        </mxCell>
        <mxCell id="OlqHOeAXy3FRhEp2WzW1-16" value="Database" style="rounded=0;whiteSpace=wrap;html=1;fillColor=#e1d5e7;strokeColor=#9673a6;" vertex="1" parent="1">
          <mxGeometry x="121" y="70" width="120" height="60" as="geometry" />
        </mxCell>
        <mxCell id="OlqHOeAXy3FRhEp2WzW1-17" value="MQ, Redis, etc..." style="rounded=0;whiteSpace=wrap;html=1;fillColor=#e1d5e7;strokeColor=#9673a6;" vertex="1" parent="1">
          <mxGeometry x="118" y="417" width="120" height="60" as="geometry" />
        </mxCell>
        <mxCell id="OlqHOeAXy3FRhEp2WzW1-21" value="" style="endArrow=classic;html=1;rounded=0;entryX=1;entryY=0.5;entryDx=0;entryDy=0;exitX=0;exitY=0.5;exitDx=0;exitDy=0;" edge="1" parent="1" source="OlqHOeAXy3FRhEp2WzW1-14" target="OlqHOeAXy3FRhEp2WzW1-4">
          <mxGeometry width="50" height="50" relative="1" as="geometry">
            <mxPoint x="744" y="303" as="sourcePoint" />
            <mxPoint x="794" y="253" as="targetPoint" />
          </mxGeometry>
        </mxCell>
        <mxCell id="OlqHOeAXy3FRhEp2WzW1-22" value="" style="endArrow=classic;html=1;rounded=0;" edge="1" parent="1" target="OlqHOeAXy3FRhEp2WzW1-2">
          <mxGeometry width="50" height="50" relative="1" as="geometry">
            <mxPoint x="594" y="295" as="sourcePoint" />
            <mxPoint x="644" y="245" as="targetPoint" />
          </mxGeometry>
        </mxCell>
        <mxCell id="OlqHOeAXy3FRhEp2WzW1-23" value="" style="endArrow=classic;html=1;rounded=0;entryX=1;entryY=0.5;entryDx=0;entryDy=0;exitX=0.071;exitY=0.726;exitDx=0;exitDy=0;exitPerimeter=0;" edge="1" parent="1" source="OlqHOeAXy3FRhEp2WzW1-2" target="OlqHOeAXy3FRhEp2WzW1-6">
          <mxGeometry width="50" height="50" relative="1" as="geometry">
            <mxPoint x="450" y="313" as="sourcePoint" />
            <mxPoint x="500" y="263" as="targetPoint" />
          </mxGeometry>
        </mxCell>
        <mxCell id="OlqHOeAXy3FRhEp2WzW1-24" value="" style="endArrow=classic;html=1;rounded=0;entryX=0.5;entryY=1;entryDx=0;entryDy=0;" edge="1" parent="1" source="OlqHOeAXy3FRhEp2WzW1-2" target="OlqHOeAXy3FRhEp2WzW1-5">
          <mxGeometry width="50" height="50" relative="1" as="geometry">
            <mxPoint x="498.08" y="250.35" as="sourcePoint" />
            <mxPoint x="433.00036330871814" y="216.00241396849023" as="targetPoint" />
          </mxGeometry>
        </mxCell>
        <mxCell id="OlqHOeAXy3FRhEp2WzW1-25" value="" style="endArrow=classic;html=1;rounded=0;entryX=1;entryY=0.5;entryDx=0;entryDy=0;exitX=0.085;exitY=0.773;exitDx=0;exitDy=0;exitPerimeter=0;" edge="1" parent="1" source="OlqHOeAXy3FRhEp2WzW1-1" target="OlqHOeAXy3FRhEp2WzW1-17">
          <mxGeometry width="50" height="50" relative="1" as="geometry">
            <mxPoint x="283" y="428" as="sourcePoint" />
            <mxPoint x="333" y="378" as="targetPoint" />
          </mxGeometry>
        </mxCell>
        <mxCell id="OlqHOeAXy3FRhEp2WzW1-26" value="" style="endArrow=classic;html=1;rounded=0;entryX=1;entryY=0.5;entryDx=0;entryDy=0;" edge="1" parent="1" source="OlqHOeAXy3FRhEp2WzW1-1" target="OlqHOeAXy3FRhEp2WzW1-16">
          <mxGeometry width="50" height="50" relative="1" as="geometry">
            <mxPoint x="294" y="147" as="sourcePoint" />
            <mxPoint x="344" y="97" as="targetPoint" />
          </mxGeometry>
        </mxCell>
      </root>
    </mxGraphModel>
  </diagram>
</mxfile>
